<svg width="607" height="161" viewBox="0 0 607 161" fill="none" xmlns="http://www.w3.org/2000/svg">
<g filter="url(#filter0_d_1_12)">
<rect x="0.0756836" y="0.816833" width="606.324" height="155.468" rx="6.75946" fill="#FF4773"/>
</g>
<path d="M230.751 77.1848H232.58C233.452 77.1848 234.097 76.967 234.517 76.5313C234.937 76.0957 235.147 75.5174 235.147 74.7966C235.147 74.0995 234.937 73.5569 234.517 73.1688C234.105 72.7806 233.535 72.5866 232.806 72.5866C232.149 72.5866 231.598 72.7687 231.155 73.1331C230.711 73.4896 230.489 73.9569 230.489 74.5352H227.055C227.055 73.6322 227.297 72.8242 227.78 72.1113C228.271 71.3904 228.952 70.828 229.824 70.4241C230.703 70.0201 231.669 69.8181 232.723 69.8181C234.553 69.8181 235.986 70.2577 237.024 71.137C238.062 72.0083 238.581 73.2123 238.581 74.7491C238.581 75.5412 238.339 76.2699 237.856 76.9353C237.373 77.6007 236.739 78.1116 235.955 78.4681C236.929 78.8166 237.654 79.3394 238.129 80.0365C238.612 80.7336 238.854 81.5574 238.854 82.5079C238.854 84.0446 238.292 85.2764 237.167 86.2032C236.05 87.13 234.569 87.5934 232.723 87.5934C230.996 87.5934 229.582 87.1379 228.481 86.2269C227.388 85.316 226.841 84.112 226.841 82.6148H230.275C230.275 83.2644 230.517 83.7951 231 84.207C231.491 84.6189 232.093 84.8249 232.806 84.8249C233.622 84.8249 234.26 84.611 234.719 84.1833C235.186 83.7476 235.42 83.1733 235.42 82.4604C235.42 80.7336 234.47 79.8701 232.568 79.8701H230.751V77.1848ZM241.551 85.6685C241.551 85.1219 241.733 84.6783 242.098 84.3377C242.47 83.9971 242.933 83.8268 243.488 83.8268C244.05 83.8268 244.514 83.9971 244.878 84.3377C245.25 84.6783 245.437 85.1219 245.437 85.6685C245.437 86.2071 245.254 86.6468 244.89 86.9874C244.526 87.3201 244.058 87.4864 243.488 87.4864C242.925 87.4864 242.462 87.3201 242.098 86.9874C241.733 86.6468 241.551 86.2071 241.551 85.6685ZM268.321 81.593C268.186 83.4545 267.497 84.9199 266.254 85.9893C265.018 87.0587 263.386 87.5934 261.358 87.5934C259.14 87.5934 257.394 86.8488 256.118 85.3596C254.851 83.8624 254.217 81.8108 254.217 79.2048V78.1473C254.217 76.4838 254.51 75.0184 255.096 73.751C255.683 72.4836 256.518 71.5132 257.604 70.8399C258.697 70.1587 259.964 69.8181 261.406 69.8181C263.402 69.8181 265.01 70.3528 266.23 71.4221C267.45 72.4915 268.155 73.9926 268.345 75.9254H264.78C264.693 74.8085 264.38 74.0005 263.842 73.5015C263.311 72.9945 262.499 72.741 261.406 72.741C260.218 72.741 259.326 73.1688 258.732 74.0243C258.146 74.8718 257.845 76.1907 257.829 77.9809V79.2879C257.829 81.1573 258.111 82.5238 258.673 83.3872C259.243 84.2506 260.138 84.6823 261.358 84.6823C262.459 84.6823 263.279 84.4328 263.818 83.9337C264.364 83.4268 264.677 82.6465 264.756 81.593H268.321ZM273.787 75.9016C274.698 74.8085 275.842 74.2619 277.22 74.2619C280.009 74.2619 281.423 75.8818 281.462 79.1216V87.3557H278.028V79.2166C278.028 78.48 277.87 77.9374 277.553 77.5888C277.236 77.2324 276.71 77.0541 275.973 77.0541C274.967 77.0541 274.238 77.4423 273.787 78.2186V87.3557H270.353V69.1052H273.787V75.9016ZM289.97 87.5934C288.084 87.5934 286.548 87.0151 285.36 85.8586C284.179 84.7021 283.589 83.1614 283.589 81.2366V80.9039C283.589 79.6127 283.839 78.4602 284.338 77.4462C284.837 76.4244 285.542 75.6402 286.453 75.0936C287.372 74.5391 288.417 74.2619 289.59 74.2619C291.348 74.2619 292.73 74.8164 293.736 75.9254C294.75 77.0343 295.257 78.6067 295.257 80.6425V82.0445H287.071C287.181 82.8842 287.514 83.5575 288.069 84.0644C288.631 84.5714 289.34 84.8249 290.195 84.8249C291.518 84.8249 292.552 84.3456 293.297 83.3872L294.984 85.2764C294.469 86.0051 293.772 86.5755 292.893 86.9874C292.013 87.3914 291.039 87.5934 289.97 87.5934ZM289.578 77.0423C288.896 77.0423 288.342 77.272 287.914 77.7314C287.494 78.1908 287.225 78.8483 287.106 79.7038H291.883V79.4305C291.867 78.6701 291.661 78.0839 291.265 77.672C290.869 77.2522 290.306 77.0423 289.578 77.0423ZM302.565 84.8249C303.198 84.8249 303.713 84.6506 304.109 84.3021C304.505 83.9535 304.711 83.4901 304.727 82.9119H307.947C307.939 83.7832 307.701 84.5833 307.234 85.312C306.767 86.0329 306.125 86.5953 305.309 86.9993C304.501 87.3953 303.606 87.5934 302.624 87.5934C300.786 87.5934 299.337 87.0111 298.275 85.8467C297.214 84.6744 296.683 83.0584 296.683 80.9989V80.7732C296.683 78.7928 297.21 77.2126 298.263 76.0323C299.317 74.852 300.762 74.2619 302.6 74.2619C304.208 74.2619 305.495 74.7213 306.462 75.6402C307.436 76.5511 307.931 77.767 307.947 79.2879H304.727C304.711 78.6225 304.505 78.0839 304.109 77.672C303.713 77.2522 303.19 77.0423 302.541 77.0423C301.741 77.0423 301.135 77.3353 300.723 77.9215C300.319 78.4998 300.117 79.4424 300.117 80.7494V81.1059C300.117 82.4287 300.319 83.3792 300.723 83.9575C301.127 84.5358 301.741 84.8249 302.565 84.8249ZM314.577 82.199L313.341 83.4347V87.3557H309.908V69.1052H313.341V79.2166L314.007 78.3611L317.298 74.4995H321.421L316.775 79.8583L321.825 87.3557H317.88L314.577 82.199ZM322.372 80.8088C322.372 79.5335 322.617 78.3968 323.108 77.3987C323.599 76.4006 324.304 75.6283 325.223 75.0817C326.15 74.5352 327.223 74.2619 328.443 74.2619C330.178 74.2619 331.592 74.7926 332.685 75.8541C333.786 76.9155 334.4 78.3572 334.527 80.1791L334.551 81.0583C334.551 83.0307 334 84.615 332.899 85.8111C331.798 86.9993 330.321 87.5934 328.467 87.5934C326.613 87.5934 325.132 86.9993 324.023 85.8111C322.922 84.6229 322.372 83.007 322.372 80.9633V80.8088ZM325.805 81.0583C325.805 82.2782 326.035 83.2129 326.495 83.8624C326.954 84.5041 327.611 84.8249 328.467 84.8249C329.299 84.8249 329.948 84.508 330.416 83.8743C330.883 83.2327 331.117 82.2109 331.117 80.8088C331.117 79.6127 330.883 78.6859 330.416 78.0284C329.948 77.371 329.291 77.0423 328.443 77.0423C327.604 77.0423 326.954 77.371 326.495 78.0284C326.035 78.678 325.805 79.688 325.805 81.0583ZM344.365 86.0487C343.517 87.0785 342.345 87.5934 340.848 87.5934C339.47 87.5934 338.416 87.1973 337.687 86.4052C336.966 85.613 336.598 84.4526 336.582 82.9238V74.4995H340.016V82.805C340.016 84.1436 340.626 84.813 341.846 84.813C343.01 84.813 343.81 84.409 344.246 83.601V74.4995H347.692V87.3557H344.46L344.365 86.0487ZM354.393 71.339V74.4995H356.591V77.0185H354.393V83.4347C354.393 83.91 354.484 84.2506 354.666 84.4565C354.849 84.6625 355.197 84.7655 355.712 84.7655C356.092 84.7655 356.429 84.7377 356.722 84.6823V87.2844C356.049 87.4904 355.356 87.5934 354.643 87.5934C352.235 87.5934 351.007 86.3774 350.959 83.9456V77.0185H349.082V74.4995H350.959V71.339H354.393Z" fill="white"/>
<defs>
<filter id="filter0_d_1_12" x="0.0756836" y="0.816833" width="606.323" height="159.523" filterUnits="userSpaceOnUse" color-interpolation-filters="sRGB">
<feFlood flood-opacity="0" result="BackgroundImageFix"/>
<feColorMatrix in="SourceAlpha" type="matrix" values="0 0 0 0 0 0 0 0 0 0 0 0 0 0 0 0 0 0 127 0" result="hardAlpha"/>
<feOffset dy="4.05568"/>
<feColorMatrix type="matrix" values="0 0 0 0 0 0 0 0 0 0 0 0 0 0 0 0 0 0 1 0"/>
<feBlend mode="normal" in2="BackgroundImageFix" result="effect1_dropShadow_1_12"/>
<feBlend mode="normal" in="SourceGraphic" in2="effect1_dropShadow_1_12" result="shape"/>
</filter>
</defs>
</svg>
