<svg width="607" height="160" viewBox="0 0 607 160" fill="none" xmlns="http://www.w3.org/2000/svg">
<g filter="url(#filter0_d_1_9)">
<rect x="0.0756836" y="0.337067" width="606.324" height="155.468" rx="6.75946" fill="#FF4773"/>
</g>
<path d="M197.267 86.876H185.409V84.5234L191.006 78.5587C191.774 77.719 192.34 76.9863 192.705 76.3605C193.077 75.7347 193.263 75.1407 193.263 74.5782C193.263 73.8099 193.069 73.2079 192.681 72.7722C192.293 72.3286 191.738 72.1068 191.018 72.1068C190.241 72.1068 189.627 72.3761 189.176 72.9148C188.732 73.4455 188.511 74.1465 188.511 75.0179H185.065C185.065 73.9644 185.314 73.0019 185.813 72.1306C186.32 71.2592 187.033 70.578 187.952 70.0869C188.871 69.5879 189.913 69.3383 191.077 69.3383C192.859 69.3383 194.242 69.7661 195.224 70.6216C196.214 71.4771 196.709 72.6851 196.709 74.2456C196.709 75.101 196.487 75.9724 196.044 76.8596C195.6 77.7467 194.84 78.7805 193.762 79.9607L189.829 84.1075H197.267V86.876ZM199.703 85.1888C199.703 84.6422 199.885 84.1986 200.25 83.858C200.622 83.5174 201.085 83.3471 201.64 83.3471C202.202 83.3471 202.666 83.5174 203.03 83.858C203.402 84.1986 203.589 84.6422 203.589 85.1888C203.589 85.7274 203.406 86.167 203.042 86.5076C202.678 86.8403 202.21 87.0067 201.64 87.0067C201.078 87.0067 200.614 86.8403 200.25 86.5076C199.885 86.167 199.703 85.7274 199.703 85.1888ZM216.457 80.7806V86.876H212.892V69.576H219.641C220.94 69.576 222.081 69.8136 223.063 70.2889C224.053 70.7642 224.814 71.4414 225.344 72.3207C225.875 73.192 226.14 74.1861 226.14 75.303C226.14 76.9982 225.558 78.3369 224.394 79.3191C223.237 80.2934 221.633 80.7806 219.582 80.7806H216.457ZM216.457 77.8933H219.641C220.584 77.8933 221.3 77.6715 221.792 77.2279C222.291 76.7843 222.54 76.1506 222.54 75.3268C222.54 74.4792 222.291 73.794 221.792 73.2712C221.293 72.7484 220.603 72.4791 219.724 72.4633H216.457V77.8933ZM235.598 77.2398C235.131 77.1764 234.719 77.1447 234.363 77.1447C233.064 77.1447 232.212 77.5844 231.808 78.4636V86.876H228.374V74.0198H231.618L231.713 75.5526C232.402 74.3723 233.357 73.7822 234.576 73.7822C234.957 73.7822 235.313 73.8337 235.646 73.9366L235.598 77.2398ZM236.299 80.3291C236.299 79.0537 236.545 77.9171 237.036 76.919C237.527 75.9209 238.232 75.1486 239.151 74.602C240.078 74.0554 241.151 73.7822 242.371 73.7822C244.106 73.7822 245.52 74.3129 246.613 75.3743C247.714 76.4358 248.328 77.8774 248.455 79.6993L248.478 80.5786C248.478 82.551 247.928 84.1352 246.827 85.3313C245.726 86.5195 244.248 87.1136 242.395 87.1136C240.541 87.1136 239.06 86.5195 237.951 85.3313C236.85 84.1431 236.299 82.5272 236.299 80.4835V80.3291ZM239.733 80.5786C239.733 81.7985 239.963 82.7332 240.422 83.3827C240.882 84.0243 241.539 84.3451 242.395 84.3451C243.226 84.3451 243.876 84.0283 244.343 83.3946C244.811 82.753 245.044 81.7311 245.044 80.3291C245.044 79.133 244.811 78.2062 244.343 77.5487C243.876 76.8913 243.219 76.5625 242.371 76.5625C241.531 76.5625 240.882 76.8913 240.422 77.5487C239.963 78.1983 239.733 79.2082 239.733 80.5786ZM250.059 80.3528C250.059 78.3488 250.506 76.7526 251.401 75.5644C252.304 74.3763 253.536 73.7822 255.096 73.7822C256.348 73.7822 257.382 74.2495 258.198 75.1842V68.6254H261.643V86.876H258.542L258.376 85.5096C257.52 86.5789 256.419 87.1136 255.073 87.1136C253.56 87.1136 252.344 86.5195 251.425 85.3313C250.514 84.1352 250.059 82.4757 250.059 80.3528ZM253.492 80.6024C253.492 81.8064 253.702 82.7292 254.122 83.3708C254.542 84.0124 255.152 84.3333 255.952 84.3333C257.013 84.3333 257.762 83.8857 258.198 82.9906V77.9171C257.77 77.022 257.029 76.5744 255.976 76.5744C254.32 76.5744 253.492 77.9171 253.492 80.6024ZM272.004 85.569C271.157 86.5987 269.984 87.1136 268.487 87.1136C267.109 87.1136 266.056 86.7176 265.327 85.9254C264.606 85.1333 264.238 83.9728 264.222 82.444V74.0198H267.656V82.3252C267.656 83.6639 268.266 84.3333 269.485 84.3333C270.65 84.3333 271.45 83.9293 271.886 83.1213V74.0198H275.331V86.876H272.099L272.004 85.569ZM283.268 84.3451C283.902 84.3451 284.417 84.1709 284.813 83.8223C285.209 83.4738 285.415 83.0104 285.431 82.4322H288.651C288.643 83.3035 288.405 84.1035 287.938 84.8323C287.471 85.5531 286.829 86.1155 286.013 86.5195C285.205 86.9156 284.31 87.1136 283.328 87.1136C281.49 87.1136 280.04 86.5314 278.979 85.367C277.918 84.1946 277.387 82.5787 277.387 80.5192V80.2934C277.387 78.3131 277.914 76.7328 278.967 75.5526C280.021 74.3723 281.466 73.7822 283.304 73.7822C284.912 73.7822 286.199 74.2416 287.166 75.1605C288.14 76.0714 288.635 77.2873 288.651 78.8082H285.431C285.415 78.1428 285.209 77.6042 284.813 77.1923C284.417 76.7724 283.894 76.5625 283.245 76.5625C282.445 76.5625 281.839 76.8556 281.427 77.4418C281.023 78.02 280.821 78.9627 280.821 80.2697V80.6261C280.821 81.949 281.023 82.8995 281.427 83.4778C281.831 84.056 282.445 84.3451 283.268 84.3451ZM294.722 70.8592V74.0198H296.921V76.5388H294.722V82.955C294.722 83.4302 294.814 83.7708 294.996 83.9768C295.178 84.1828 295.526 84.2857 296.041 84.2857C296.422 84.2857 296.758 84.258 297.051 84.2026V86.8047C296.378 87.0106 295.685 87.1136 294.972 87.1136C292.564 87.1136 291.336 85.8977 291.289 83.4659V76.5388H289.411V74.0198H291.289V70.8592H294.722ZM315.528 79.8063H308.684V86.876H305.119V69.576H316.383V72.4633H308.684V76.9309H315.528V79.8063ZM323.881 87.1136C321.995 87.1136 320.459 86.5354 319.27 85.3789C318.09 84.2224 317.5 82.6817 317.5 80.7568V80.4241C317.5 79.133 317.75 77.9804 318.249 76.9665C318.748 75.9447 319.453 75.1605 320.364 74.6139C321.282 74.0594 322.328 73.7822 323.5 73.7822C325.259 73.7822 326.641 74.3366 327.647 75.4456C328.661 76.5546 329.168 78.127 329.168 80.1627V81.5648H320.981C321.092 82.4044 321.425 83.0777 321.979 83.5847C322.542 84.0917 323.251 84.3451 324.106 84.3451C325.429 84.3451 326.463 83.8659 327.208 82.9074L328.895 84.7967C328.38 85.5254 327.683 86.0957 326.804 86.5076C325.924 86.9116 324.95 87.1136 323.881 87.1136ZM323.488 76.5625C322.807 76.5625 322.253 76.7922 321.825 77.2517C321.405 77.7111 321.136 78.3686 321.017 79.2241H325.794V78.9508C325.778 78.1903 325.572 77.6042 325.176 77.1923C324.78 76.7724 324.217 76.5625 323.488 76.5625ZM338.578 86.876C338.42 86.567 338.305 86.1829 338.234 85.7234C337.402 86.6502 336.321 87.1136 334.99 87.1136C333.731 87.1136 332.685 86.7492 331.853 86.0205C331.03 85.2917 330.618 84.3729 330.618 83.2639C330.618 81.9014 331.121 80.8558 332.127 80.1271C333.141 79.3983 334.602 79.03 336.511 79.0221H338.091V78.2854C338.091 77.6913 337.937 77.216 337.628 76.8596C337.327 76.5031 336.848 76.3249 336.19 76.3249C335.612 76.3249 335.156 76.4635 334.824 76.7407C334.499 77.018 334.337 77.3982 334.337 77.8814H330.903C330.903 77.1368 331.132 76.4477 331.592 75.814C332.051 75.1803 332.701 74.6852 333.541 74.3287C334.38 73.9644 335.323 73.7822 336.368 73.7822C337.953 73.7822 339.208 74.1822 340.135 74.9822C341.07 75.7744 341.537 76.8913 341.537 78.3329V83.9055C341.545 85.1254 341.715 86.0482 342.048 86.674V86.876H338.578ZM335.739 84.4877C336.246 84.4877 336.713 84.3768 337.141 84.155C337.568 83.9253 337.885 83.6203 338.091 83.2401V81.0301H336.808C335.089 81.0301 334.174 81.6242 334.063 82.8124L334.051 83.0144C334.051 83.4421 334.202 83.7946 334.503 84.0719C334.804 84.3491 335.216 84.4877 335.739 84.4877ZM348.286 70.8592V74.0198H350.484V76.5388H348.286V82.955C348.286 83.4302 348.377 83.7708 348.559 83.9768C348.741 84.1828 349.09 84.2857 349.605 84.2857C349.985 84.2857 350.322 84.258 350.615 84.2026V86.8047C349.941 87.0106 349.248 87.1136 348.535 87.1136C346.127 87.1136 344.9 85.8977 344.852 83.4659V76.5388H342.975V74.0198H344.852V70.8592H348.286ZM360.097 85.569C359.249 86.5987 358.077 87.1136 356.579 87.1136C355.201 87.1136 354.148 86.7176 353.419 85.9254C352.698 85.1333 352.33 83.9728 352.314 82.444V74.0198H355.748V82.3252C355.748 83.6639 356.358 84.3333 357.578 84.3333C358.742 84.3333 359.542 83.9293 359.978 83.1213V74.0198H363.423V86.876H360.192L360.097 85.569ZM373.238 77.2398C372.771 77.1764 372.359 77.1447 372.002 77.1447C370.703 77.1447 369.852 77.5844 369.448 78.4636V86.876H366.014V74.0198H369.257L369.352 75.5526C370.042 74.3723 370.996 73.7822 372.216 73.7822C372.596 73.7822 372.953 73.8337 373.285 73.9366L373.238 77.2398ZM380.581 87.1136C378.696 87.1136 377.159 86.5354 375.971 85.3789C374.79 84.2224 374.2 82.6817 374.2 80.7568V80.4241C374.2 79.133 374.45 77.9804 374.949 76.9665C375.448 75.9447 376.153 75.1605 377.064 74.6139C377.983 74.0594 379.028 73.7822 380.201 73.7822C381.959 73.7822 383.341 74.3366 384.347 75.4456C385.361 76.5546 385.868 78.127 385.868 80.1627V81.5648H377.682C377.793 82.4044 378.125 83.0777 378.68 83.5847C379.242 84.0917 379.951 84.3451 380.807 84.3451C382.129 84.3451 383.163 83.8659 383.908 82.9074L385.595 84.7967C385.08 85.5254 384.383 86.0957 383.504 86.5076C382.625 86.9116 381.65 87.1136 380.581 87.1136ZM380.189 76.5625C379.508 76.5625 378.953 76.7922 378.525 77.2517C378.105 77.7111 377.836 78.3686 377.717 79.2241H382.494V78.9508C382.478 78.1903 382.272 77.6042 381.876 77.1923C381.48 76.7724 380.917 76.5625 380.189 76.5625ZM394.792 83.3233C394.792 82.9035 394.582 82.5747 394.162 82.3371C393.75 82.0915 393.085 81.8737 392.166 81.6836C389.108 81.042 387.579 79.7429 387.579 77.7864C387.579 76.6457 388.051 75.6951 388.993 74.9347C389.944 74.1663 391.183 73.7822 392.712 73.7822C394.344 73.7822 395.647 74.1663 396.621 74.9347C397.604 75.7031 398.095 76.7011 398.095 77.9289H394.661C394.661 77.4378 394.502 77.0338 394.186 76.717C393.869 76.3922 393.374 76.2298 392.7 76.2298C392.122 76.2298 391.675 76.3605 391.358 76.6219C391.041 76.8833 390.882 77.216 390.882 77.62C390.882 78.0002 391.061 78.3092 391.417 78.5468C391.781 78.7765 392.391 78.9785 393.247 79.1528C394.102 79.3191 394.823 79.5092 395.409 79.7231C397.223 80.3885 398.13 81.541 398.13 83.1807C398.13 84.3531 397.627 85.3036 396.621 86.0324C395.615 86.7532 394.316 87.1136 392.724 87.1136C391.647 87.1136 390.688 86.9235 389.849 86.5433C389.017 86.1551 388.363 85.6284 387.888 84.963C387.413 84.2897 387.175 83.5649 387.175 82.7886H390.431C390.463 83.3986 390.688 83.8659 391.108 84.1907C391.528 84.5154 392.09 84.6778 392.795 84.6778C393.453 84.6778 393.948 84.5551 394.281 84.3095C394.621 84.056 394.792 83.7273 394.792 83.3233Z" fill="white"/>
<defs>
<filter id="filter0_d_1_9" x="0.0756836" y="0.337067" width="606.323" height="159.523" filterUnits="userSpaceOnUse" color-interpolation-filters="sRGB">
<feFlood flood-opacity="0" result="BackgroundImageFix"/>
<feColorMatrix in="SourceAlpha" type="matrix" values="0 0 0 0 0 0 0 0 0 0 0 0 0 0 0 0 0 0 127 0" result="hardAlpha"/>
<feOffset dy="4.05568"/>
<feColorMatrix type="matrix" values="0 0 0 0 0 0 0 0 0 0 0 0 0 0 0 0 0 0 1 0"/>
<feBlend mode="normal" in2="BackgroundImageFix" result="effect1_dropShadow_1_9"/>
<feBlend mode="normal" in="SourceGraphic" in2="effect1_dropShadow_1_9" result="shape"/>
</filter>
</defs>
</svg>
