<svg width="607" height="160" viewBox="0 0 607 160" fill="none" xmlns="http://www.w3.org/2000/svg">
<g filter="url(#filter0_d_1_15)">
<rect x="0.0756836" y="0.29657" width="606.324" height="155.468" rx="6.75946" fill="#FF4773"/>
</g>
<path d="M217.799 80.3242H219.76V83.0927H217.799V86.8355H214.365V83.0927H207.272L207.118 80.9302L214.33 69.5355H217.799V80.3242ZM210.539 80.3242H214.365V74.217L214.14 74.6091L210.539 80.3242ZM221.934 85.1483C221.934 84.6017 222.116 84.1581 222.481 83.8175C222.853 83.4769 223.316 83.3066 223.871 83.3066C224.433 83.3066 224.897 83.4769 225.261 83.8175C225.633 84.1581 225.82 84.6017 225.82 85.1483C225.82 85.6869 225.637 86.1266 225.273 86.4672C224.909 86.7999 224.441 86.9662 223.871 86.9662C223.309 86.9662 222.845 86.7999 222.481 86.4672C222.116 86.1266 221.934 85.6869 221.934 85.1483ZM248.704 81.0728C248.569 82.9343 247.88 84.3997 246.637 85.4691C245.401 86.5385 243.769 87.0731 241.741 87.0731C239.523 87.0731 237.777 86.3286 236.501 84.8394C235.234 83.3422 234.6 81.2906 234.6 78.6846V77.6271C234.6 75.9636 234.893 74.4982 235.48 73.2308C236.066 71.9634 236.901 70.993 237.987 70.3197C239.08 69.6385 240.347 69.2979 241.789 69.2979C243.785 69.2979 245.393 69.8326 246.613 70.9019C247.833 71.9713 248.538 73.4724 248.728 75.4052H245.163C245.076 74.2883 244.763 73.4803 244.225 72.9813C243.694 72.4743 242.882 72.2208 241.789 72.2208C240.601 72.2208 239.709 72.6486 239.115 73.5041C238.529 74.3516 238.228 75.6705 238.212 77.4607V78.7677C238.212 80.6371 238.494 82.0036 239.056 82.867C239.626 83.7304 240.521 84.1621 241.741 84.1621C242.842 84.1621 243.662 83.9126 244.201 83.4135C244.747 82.9066 245.06 82.1263 245.139 81.0728H248.704ZM250.284 80.2886C250.284 79.0133 250.53 77.8766 251.021 76.8785C251.512 75.8804 252.217 75.1081 253.136 74.5615C254.063 74.015 255.136 73.7417 256.356 73.7417C258.091 73.7417 259.505 74.2724 260.598 75.3339C261.699 76.3953 262.313 77.837 262.439 79.6589L262.463 80.5381C262.463 82.5105 261.913 84.0948 260.812 85.2909C259.711 86.4791 258.233 87.0731 256.38 87.0731C254.526 87.0731 253.045 86.4791 251.936 85.2909C250.835 84.1027 250.284 82.4867 250.284 80.4431V80.2886ZM253.718 80.5381C253.718 81.758 253.948 82.6927 254.407 83.3422C254.867 83.9839 255.524 84.3047 256.38 84.3047C257.211 84.3047 257.861 83.9878 258.328 83.3541C258.796 82.7125 259.029 81.6907 259.029 80.2886C259.029 79.0925 258.796 78.1657 258.328 77.5082C257.861 76.8508 257.204 76.5221 256.356 76.5221C255.516 76.5221 254.867 76.8508 254.407 77.5082C253.948 78.1578 253.718 79.1677 253.718 80.5381ZM267.739 73.9793L267.846 75.4646C268.765 74.316 269.996 73.7417 271.541 73.7417C272.903 73.7417 273.917 74.1417 274.583 74.9418C275.248 75.7418 275.589 76.9379 275.605 78.5301V86.8355H272.171V78.6133C272.171 77.8845 272.012 77.3577 271.695 77.033C271.379 76.7003 270.852 76.5339 270.115 76.5339C269.149 76.5339 268.424 76.9458 267.941 77.7696V86.8355H264.507V73.9793H267.739ZM279.05 86.8355V76.4983H277.137V73.9793H279.05V73.3852C279.066 71.7693 279.561 70.5257 280.536 69.6543C281.518 68.7751 282.9 68.3354 284.682 68.3354C285.752 68.3354 287.051 68.5691 288.58 69.0365L288.081 71.8762C287.304 71.6465 286.702 71.5 286.274 71.4366C285.847 71.3653 285.387 71.3297 284.896 71.3297C283.296 71.3297 282.496 72.0386 282.496 73.4565V73.9793H285.027V76.4983H282.496V86.8355H279.05ZM290.184 86.8355H286.738V73.9793H290.184V86.8355ZM300.248 77.1993C299.78 77.1359 299.368 77.1043 299.012 77.1043C297.713 77.1043 296.861 77.5439 296.457 78.4232V86.8355H293.023V73.9793H296.267L296.362 75.5121C297.051 74.3318 298.006 73.7417 299.226 73.7417C299.606 73.7417 299.962 73.7932 300.295 73.8962L300.248 77.1993ZM305.131 73.9793L305.238 75.417C306.149 74.3001 307.381 73.7417 308.933 73.7417C310.589 73.7417 311.725 74.3952 312.343 75.7022C313.246 74.3952 314.534 73.7417 316.205 73.7417C317.599 73.7417 318.637 74.1496 319.318 74.9655C319.999 75.7735 320.34 76.9934 320.34 78.6251V86.8355H316.894V78.637C316.894 77.9083 316.751 77.3775 316.466 77.0449C316.181 76.7042 315.678 76.5339 314.957 76.5339C313.928 76.5339 313.215 77.0251 312.819 78.0073L312.83 86.8355H309.397V78.6489C309.397 77.9043 309.25 77.3657 308.957 77.033C308.664 76.7003 308.165 76.5339 307.46 76.5339C306.486 76.5339 305.781 76.9379 305.345 77.7459V86.8355H301.911V73.9793H305.131ZM330.439 86.8355C330.281 86.5266 330.166 86.1424 330.095 85.683C329.263 86.6098 328.182 87.0731 326.851 87.0731C325.592 87.0731 324.546 86.7088 323.714 85.98C322.89 85.2513 322.479 84.3324 322.479 83.2234C322.479 81.861 322.982 80.8154 323.988 80.0866C325.001 79.3579 326.463 78.9895 328.372 78.9816H329.952V78.2449C329.952 77.6508 329.798 77.1756 329.489 76.8191C329.188 76.4626 328.709 76.2844 328.051 76.2844C327.473 76.2844 327.017 76.423 326.685 76.7003C326.36 76.9775 326.198 77.3577 326.198 77.8409H322.764C322.764 77.0963 322.993 76.4072 323.453 75.7735C323.912 75.1398 324.562 74.6447 325.401 74.2883C326.241 73.9239 327.184 73.7417 328.229 73.7417C329.814 73.7417 331.069 74.1417 331.996 74.9418C332.931 75.7339 333.398 76.8508 333.398 78.2925V83.865C333.406 85.0849 333.576 86.0077 333.909 86.6335V86.8355H330.439ZM327.6 84.4473C328.107 84.4473 328.574 84.3364 329.002 84.1146C329.429 83.8848 329.746 83.5799 329.952 83.1997V80.9896H328.669C326.95 80.9896 326.035 81.5837 325.924 82.7719L325.912 82.9739C325.912 83.4017 326.063 83.7541 326.364 84.0314C326.665 84.3086 327.077 84.4473 327.6 84.4473ZM340.147 70.8188V73.9793H342.345V76.4983H340.147V82.9145C340.147 83.3898 340.238 83.7304 340.42 83.9363C340.602 84.1423 340.951 84.2453 341.466 84.2453C341.846 84.2453 342.183 84.2175 342.476 84.1621V86.7642C341.802 86.9702 341.109 87.0731 340.396 87.0731C337.988 87.0731 336.761 85.8572 336.713 83.4254V76.4983H334.836V73.9793H336.713V70.8188H340.147ZM347.882 86.8355H344.436V73.9793H347.882V86.8355ZM344.234 70.6524C344.234 70.1375 344.405 69.7137 344.745 69.3811C345.094 69.0484 345.565 68.882 346.159 68.882C346.745 68.882 347.213 69.0484 347.561 69.3811C347.91 69.7137 348.084 70.1375 348.084 70.6524C348.084 71.1752 347.906 71.603 347.549 71.9357C347.201 72.2683 346.737 72.4347 346.159 72.4347C345.581 72.4347 345.113 72.2683 344.757 71.9357C344.408 71.603 344.234 71.1752 344.234 70.6524ZM350.187 80.2886C350.187 79.0133 350.433 77.8766 350.924 76.8785C351.415 75.8804 352.12 75.1081 353.039 74.5615C353.965 74.015 355.039 73.7417 356.259 73.7417C357.993 73.7417 359.407 74.2724 360.5 75.3339C361.602 76.3953 362.215 77.837 362.342 79.6589L362.366 80.5381C362.366 82.5105 361.815 84.0948 360.714 85.2909C359.613 86.4791 358.136 87.0731 356.282 87.0731C354.429 87.0731 352.948 86.4791 351.839 85.2909C350.738 84.1027 350.187 82.4867 350.187 80.4431V80.2886ZM353.621 80.5381C353.621 81.758 353.851 82.6927 354.31 83.3422C354.769 83.9839 355.427 84.3047 356.282 84.3047C357.114 84.3047 357.764 83.9878 358.231 83.3541C358.698 82.7125 358.932 81.6907 358.932 80.2886C358.932 79.0925 358.698 78.1657 358.231 77.5082C357.764 76.8508 357.106 76.5221 356.259 76.5221C355.419 76.5221 354.769 76.8508 354.31 77.5082C353.851 78.1578 353.621 79.1677 353.621 80.5381ZM367.641 73.9793L367.748 75.4646C368.667 74.316 369.899 73.7417 371.444 73.7417C372.806 73.7417 373.82 74.1417 374.485 74.9418C375.151 75.7418 375.491 76.9379 375.507 78.5301V86.8355H372.073V78.6133C372.073 77.8845 371.915 77.3577 371.598 77.033C371.281 76.7003 370.755 76.5339 370.018 76.5339C369.051 76.5339 368.327 76.9458 367.843 77.7696V86.8355H364.41V73.9793H367.641Z" fill="white"/>
<defs>
<filter id="filter0_d_1_15" x="0.0756836" y="0.29657" width="606.323" height="159.523" filterUnits="userSpaceOnUse" color-interpolation-filters="sRGB">
<feFlood flood-opacity="0" result="BackgroundImageFix"/>
<feColorMatrix in="SourceAlpha" type="matrix" values="0 0 0 0 0 0 0 0 0 0 0 0 0 0 0 0 0 0 127 0" result="hardAlpha"/>
<feOffset dy="4.05568"/>
<feColorMatrix type="matrix" values="0 0 0 0 0 0 0 0 0 0 0 0 0 0 0 0 0 0 1 0"/>
<feBlend mode="normal" in2="BackgroundImageFix" result="effect1_dropShadow_1_15"/>
<feBlend mode="normal" in="SourceGraphic" in2="effect1_dropShadow_1_15" result="shape"/>
</filter>
</defs>
</svg>
