<svg width="607" height="161" viewBox="0 0 607 161" fill="none" xmlns="http://www.w3.org/2000/svg">
<g filter="url(#filter0_d_1_6)">
<rect x="0.0756836" y="0.857315" width="606.324" height="155.468" rx="6.75946" fill="#FF4773"/>
</g>
<path d="M127.169 87.3962H123.735V74.1598L119.636 75.4312V72.639L126.801 70.0725H127.169V87.3962ZM133.122 85.709C133.122 85.1624 133.304 84.7189 133.668 84.3782C134.041 84.0376 134.504 83.8673 135.058 83.8673C135.621 83.8673 136.084 84.0376 136.449 84.3782C136.821 84.7189 137.007 85.1624 137.007 85.709C137.007 86.2477 136.825 86.6873 136.46 87.0279C136.096 87.3606 135.629 87.5269 135.058 87.5269C134.496 87.5269 134.033 87.3606 133.668 87.0279C133.304 86.6873 133.122 86.2477 133.122 85.709ZM162.442 87.3962H158.878V79.982H151.927V87.3962H148.362V70.0962H151.927V77.1065H158.878V70.0962H162.442V87.3962ZM164.807 80.8493C164.807 79.574 165.052 78.4373 165.543 77.4392C166.034 76.4412 166.739 75.6688 167.658 75.1223C168.585 74.5757 169.658 74.3024 170.878 74.3024C172.613 74.3024 174.027 74.8331 175.12 75.8946C176.221 76.956 176.835 78.3977 176.962 80.2196L176.985 81.0989C176.985 83.0712 176.435 84.6555 175.334 85.8516C174.233 87.0398 172.756 87.6339 170.902 87.6339C169.048 87.6339 167.567 87.0398 166.458 85.8516C165.357 84.6634 164.807 83.0475 164.807 81.0038V80.8493ZM168.24 81.0989C168.24 82.3187 168.47 83.2534 168.93 83.903C169.389 84.5446 170.046 84.8654 170.902 84.8654C171.734 84.8654 172.383 84.5486 172.851 83.9149C173.318 83.2732 173.552 82.2514 173.552 80.8493C173.552 79.6532 173.318 78.7264 172.851 78.069C172.383 77.4115 171.726 77.0828 170.878 77.0828C170.039 77.0828 169.389 77.4115 168.93 78.069C168.47 78.7185 168.24 79.7285 168.24 81.0989ZM182.32 74.5401L182.427 75.9778C183.338 74.8609 184.57 74.3024 186.123 74.3024C187.778 74.3024 188.915 74.9559 189.533 76.2629C190.436 74.9559 191.723 74.3024 193.394 74.3024C194.788 74.3024 195.826 74.7104 196.507 75.5263C197.189 76.3342 197.529 77.5541 197.529 79.1859V87.3962H194.083V79.1978C194.083 78.469 193.941 77.9383 193.656 77.6056C193.371 77.265 192.868 77.0947 192.147 77.0947C191.117 77.0947 190.404 77.5858 190.008 78.568L190.02 87.3962H186.586V79.2096C186.586 78.465 186.439 77.9264 186.146 77.5937C185.853 77.261 185.354 77.0947 184.649 77.0947C183.675 77.0947 182.97 77.4986 182.534 78.3066V87.3962H179.1V74.5401H182.32ZM206.096 87.6339C204.211 87.6339 202.674 87.0556 201.486 85.8991C200.306 84.7426 199.715 83.2019 199.715 81.2771V80.9444C199.715 79.6532 199.965 78.5007 200.464 77.4868C200.963 76.4649 201.668 75.6807 202.579 75.1342C203.498 74.5797 204.543 74.3024 205.716 74.3024C207.474 74.3024 208.857 74.8569 209.863 75.9659C210.877 77.0749 211.383 78.6472 211.383 80.683V82.085H203.197C203.308 82.9247 203.64 83.598 204.195 84.105C204.757 84.6119 205.466 84.8654 206.322 84.8654C207.645 84.8654 208.678 84.3862 209.423 83.4277L211.11 85.3169C210.595 86.0457 209.898 86.616 209.019 87.0279C208.14 87.4319 207.165 87.6339 206.096 87.6339ZM205.704 77.0828C205.023 77.0828 204.468 77.3125 204.04 77.7719C203.621 78.2314 203.351 78.8888 203.233 79.7443H208.009V79.471C207.993 78.7106 207.787 78.1244 207.391 77.7125C206.995 77.2927 206.433 77.0828 205.704 77.0828ZM224.917 81.087C224.917 83.0673 224.465 84.6555 223.562 85.8516C222.667 87.0398 221.455 87.6339 219.927 87.6339C218.627 87.6339 217.578 87.1824 216.778 86.2793V92.3391H213.344V74.5401H216.528L216.647 75.7995C217.479 74.8015 218.564 74.3024 219.903 74.3024C221.487 74.3024 222.719 74.8886 223.598 76.0609C224.477 77.2333 224.917 78.8492 224.917 80.9087V81.087ZM221.483 80.8375C221.483 79.6413 221.269 78.7185 220.841 78.069C220.422 77.4194 219.808 77.0947 219 77.0947C217.922 77.0947 217.182 77.5066 216.778 78.3304V83.594C217.198 84.4416 217.946 84.8654 219.024 84.8654C220.663 84.8654 221.483 83.5228 221.483 80.8375ZM234.506 87.3962C234.347 87.0873 234.232 86.7031 234.161 86.2437C233.329 87.1705 232.248 87.6339 230.917 87.6339C229.658 87.6339 228.612 87.2695 227.78 86.5407C226.957 85.812 226.545 84.8931 226.545 83.7842C226.545 82.4217 227.048 81.3761 228.054 80.6473C229.068 79.9186 230.529 79.5502 232.438 79.5423H234.018V78.8057C234.018 78.2116 233.864 77.7363 233.555 77.3798C233.254 77.0234 232.775 76.8451 232.117 76.8451C231.539 76.8451 231.084 76.9838 230.751 77.261C230.426 77.5383 230.264 77.9185 230.264 78.4017H226.83C226.83 77.6571 227.06 76.9679 227.519 76.3342C227.978 75.7005 228.628 75.2054 229.468 74.849C230.307 74.4846 231.25 74.3024 232.296 74.3024C233.88 74.3024 235.135 74.7024 236.062 75.5025C236.997 76.2946 237.464 77.4115 237.464 78.8532V84.4258C237.472 85.6456 237.642 86.5685 237.975 87.1942V87.3962H234.506ZM231.666 85.008C232.173 85.008 232.64 84.8971 233.068 84.6753C233.496 84.4456 233.812 84.1406 234.018 83.7604V81.5504H232.735C231.016 81.5504 230.101 82.1445 229.99 83.3326L229.979 83.5346C229.979 83.9624 230.129 84.3149 230.43 84.5921C230.731 84.8694 231.143 85.008 231.666 85.008ZM239.603 80.8731C239.603 78.9007 240.07 77.3125 241.005 76.1085C241.948 74.9044 243.215 74.3024 244.807 74.3024C246.217 74.3024 247.314 74.7856 248.098 75.752L248.241 74.5401H251.354V86.9685C251.354 88.0933 251.097 89.0716 250.582 89.9033C250.075 90.735 249.358 91.3687 248.431 91.8044C247.504 92.2401 246.419 92.4579 245.175 92.4579C244.233 92.4579 243.314 92.2678 242.419 91.8876C241.524 91.5153 240.847 91.0321 240.387 90.438L241.908 88.3468C242.763 89.3053 243.801 89.7845 245.021 89.7845C245.932 89.7845 246.641 89.5389 247.148 89.0478C247.655 88.5646 247.908 87.8755 247.908 86.9804V86.2912C247.116 87.1863 246.075 87.6339 244.783 87.6339C243.239 87.6339 241.987 87.0319 241.029 85.8278C240.078 84.6159 239.603 83.0118 239.603 81.0157V80.8731ZM243.037 81.1226C243.037 82.287 243.27 83.2019 243.738 83.8673C244.205 84.5248 244.847 84.8535 245.663 84.8535C246.708 84.8535 247.457 84.4614 247.908 83.6772V78.271C247.449 77.4868 246.708 77.0947 245.686 77.0947C244.863 77.0947 244.213 77.4313 243.738 78.1046C243.27 78.7779 243.037 79.7839 243.037 81.1226ZM259.921 87.6339C258.036 87.6339 256.499 87.0556 255.311 85.8991C254.13 84.7426 253.54 83.2019 253.54 81.2771V80.9444C253.54 79.6532 253.79 78.5007 254.289 77.4868C254.788 76.4649 255.493 75.6807 256.404 75.1342C257.323 74.5797 258.368 74.3024 259.541 74.3024C261.299 74.3024 262.681 74.8569 263.687 75.9659C264.701 77.0749 265.208 78.6472 265.208 80.683V82.085H257.022C257.133 82.9247 257.465 83.598 258.02 84.105C258.582 84.6119 259.291 84.8654 260.147 84.8654C261.469 84.8654 262.503 84.3862 263.248 83.4277L264.935 85.3169C264.42 86.0457 263.723 86.616 262.844 87.0279C261.965 87.4319 260.99 87.6339 259.921 87.6339ZM259.529 77.0828C258.848 77.0828 258.293 77.3125 257.865 77.7719C257.445 78.2314 257.176 78.8888 257.057 79.7443H261.834V79.471C261.818 78.7106 261.612 78.1244 261.216 77.7125C260.82 77.2927 260.258 77.0828 259.529 77.0828ZM268.25 88.8815H265.695L272.064 70.0962H274.619L268.25 88.8815ZM281.154 70.0962L285.598 82.6435L290.018 70.0962H294.699V87.3962H291.123V82.6673L291.479 74.5044L286.81 87.3962H284.362L279.704 74.5163L280.061 82.6673V87.3962H276.496V70.0962H281.154ZM305.036 87.3962C304.878 87.0873 304.763 86.7031 304.692 86.2437C303.86 87.1705 302.779 87.6339 301.448 87.6339C300.189 87.6339 299.143 87.2695 298.311 86.5407C297.487 85.812 297.075 84.8931 297.075 83.7842C297.075 82.4217 297.578 81.3761 298.584 80.6473C299.598 79.9186 301.06 79.5502 302.969 79.5423H304.549V78.8057C304.549 78.2116 304.395 77.7363 304.086 77.3798C303.785 77.0234 303.306 76.8451 302.648 76.8451C302.07 76.8451 301.614 76.9838 301.282 77.261C300.957 77.5383 300.795 77.9185 300.795 78.4017H297.361C297.361 77.6571 297.59 76.9679 298.05 76.3342C298.509 75.7005 299.159 75.2054 299.998 74.849C300.838 74.4846 301.781 74.3024 302.826 74.3024C304.411 74.3024 305.666 74.7024 306.593 75.5025C307.528 76.2946 307.995 77.4115 307.995 78.8532V84.4258C308.003 85.6456 308.173 86.5685 308.506 87.1942V87.3962H305.036ZM302.197 85.008C302.704 85.008 303.171 84.8971 303.599 84.6753C304.026 84.4456 304.343 84.1406 304.549 83.7604V81.5504H303.266C301.547 81.5504 300.632 82.1445 300.521 83.3326L300.509 83.5346C300.509 83.9624 300.66 84.3149 300.961 84.5921C301.262 84.8694 301.674 85.008 302.197 85.008ZM317.857 77.76C317.39 77.6967 316.978 77.665 316.621 77.665C315.322 77.665 314.471 78.1046 314.067 78.9839V87.3962H310.633V74.5401H313.876L313.971 76.0728C314.661 74.8926 315.615 74.3024 316.835 74.3024C317.215 74.3024 317.572 74.3539 317.904 74.4569L317.857 77.76ZM324.19 82.2395L322.954 83.4752V87.3962H319.52V69.1457H322.954V79.2572L323.62 78.4017L326.911 74.5401H331.034L326.388 79.8988L331.438 87.3962H327.493L324.19 82.2395ZM338.199 87.6339C336.313 87.6339 334.777 87.0556 333.588 85.8991C332.408 84.7426 331.818 83.2019 331.818 81.2771V80.9444C331.818 79.6532 332.068 78.5007 332.567 77.4868C333.066 76.4649 333.771 75.6807 334.682 75.1342C335.6 74.5797 336.646 74.3024 337.818 74.3024C339.577 74.3024 340.959 74.8569 341.965 75.9659C342.979 77.0749 343.486 78.6472 343.486 80.683V82.085H335.299C335.41 82.9247 335.743 83.598 336.298 84.105C336.86 84.6119 337.569 84.8654 338.424 84.8654C339.747 84.8654 340.781 84.3862 341.526 83.4277L343.213 85.3169C342.698 86.0457 342.001 86.616 341.122 87.0279C340.242 87.4319 339.268 87.6339 338.199 87.6339ZM337.807 77.0828C337.125 77.0828 336.571 77.3125 336.143 77.7719C335.723 78.2314 335.454 78.8888 335.335 79.7443H340.112V79.471C340.096 78.7106 339.89 78.1244 339.494 77.7125C339.098 77.2927 338.535 77.0828 337.807 77.0828ZM349.558 71.3795V74.5401H351.756V77.059H349.558V83.4752C349.558 83.9505 349.649 84.2911 349.831 84.4971C350.013 84.703 350.362 84.806 350.877 84.806C351.257 84.806 351.593 84.7783 351.887 84.7228V87.3249C351.213 87.5309 350.52 87.6339 349.807 87.6339C347.399 87.6339 346.171 86.418 346.124 83.9861V77.059H344.246V74.5401H346.124V71.3795H349.558ZM357.293 87.3962H353.847V74.5401H357.293V87.3962ZM353.645 71.2131C353.645 70.6983 353.815 70.2745 354.156 69.9418C354.504 69.6091 354.976 69.4427 355.57 69.4427C356.156 69.4427 356.623 69.6091 356.972 69.9418C357.32 70.2745 357.495 70.6983 357.495 71.2131C357.495 71.7359 357.317 72.1637 356.96 72.4964C356.612 72.8291 356.148 72.9954 355.57 72.9954C354.992 72.9954 354.524 72.8291 354.168 72.4964C353.819 72.1637 353.645 71.7359 353.645 71.2131ZM363.293 74.5401L363.4 76.0253C364.319 74.8767 365.551 74.3024 367.095 74.3024C368.458 74.3024 369.472 74.7024 370.137 75.5025C370.802 76.3025 371.143 77.4986 371.159 79.0908V87.3962H367.725V79.174C367.725 78.4452 367.567 77.9185 367.25 77.5937C366.933 77.261 366.406 77.0947 365.669 77.0947C364.703 77.0947 363.978 77.5066 363.495 78.3304V87.3962H360.061V74.5401H363.293ZM373.274 80.8731C373.274 78.9007 373.741 77.3125 374.676 76.1085C375.619 74.9044 376.886 74.3024 378.478 74.3024C379.888 74.3024 380.985 74.7856 381.769 75.752L381.912 74.5401H385.025V86.9685C385.025 88.0933 384.768 89.0716 384.253 89.9033C383.746 90.735 383.029 91.3687 382.102 91.8044C381.175 92.2401 380.09 92.4579 378.846 92.4579C377.904 92.4579 376.985 92.2678 376.09 91.8876C375.195 91.5153 374.517 91.0321 374.058 90.438L375.579 88.3468C376.434 89.3053 377.472 89.7845 378.692 89.7845C379.603 89.7845 380.312 89.5389 380.819 89.0478C381.326 88.5646 381.579 87.8755 381.579 86.9804V86.2912C380.787 87.1863 379.746 87.6339 378.454 87.6339C376.91 87.6339 375.658 87.0319 374.7 85.8278C373.749 84.6159 373.274 83.0118 373.274 81.0157V80.8731ZM376.708 81.1226C376.708 82.287 376.941 83.2019 377.409 83.8673C377.876 84.5248 378.518 84.8535 379.334 84.8535C380.379 84.8535 381.128 84.4614 381.579 83.6772V78.271C381.12 77.4868 380.379 77.0947 379.357 77.0947C378.534 77.0947 377.884 77.4313 377.409 78.1046C376.941 78.7779 376.708 79.7839 376.708 81.1226ZM397.525 81.3008V87.3962H393.96V70.0962H400.709C402.008 70.0962 403.149 70.3339 404.131 70.8092C405.121 71.2844 405.882 71.9617 406.412 72.841C406.943 73.7123 407.208 74.7064 407.208 75.8233C407.208 77.5185 406.626 78.8571 405.462 79.8394C404.305 80.8137 402.701 81.3008 400.65 81.3008H397.525ZM397.525 78.4136H400.709C401.652 78.4136 402.369 78.1918 402.86 77.7482C403.359 77.3046 403.608 76.6709 403.608 75.8471C403.608 74.9995 403.359 74.3143 402.86 73.7915C402.361 73.2687 401.672 72.9994 400.792 72.9835H397.525V78.4136ZM416.75 87.3962C416.591 87.0873 416.476 86.7031 416.405 86.2437C415.573 87.1705 414.492 87.6339 413.161 87.6339C411.902 87.6339 410.856 87.2695 410.024 86.5407C409.201 85.812 408.789 84.8931 408.789 83.7842C408.789 82.4217 409.292 81.3761 410.298 80.6473C411.312 79.9186 412.773 79.5502 414.682 79.5423H416.262V78.8057C416.262 78.2116 416.108 77.7363 415.799 77.3798C415.498 77.0234 415.019 76.8451 414.361 76.8451C413.783 76.8451 413.328 76.9838 412.995 77.261C412.67 77.5383 412.508 77.9185 412.508 78.4017H409.074C409.074 77.6571 409.304 76.9679 409.763 76.3342C410.223 75.7005 410.872 75.2054 411.712 74.849C412.551 74.4846 413.494 74.3024 414.54 74.3024C416.124 74.3024 417.379 74.7024 418.306 75.5025C419.241 76.2946 419.708 77.4115 419.708 78.8532V84.4258C419.716 85.6456 419.886 86.5685 420.219 87.1942V87.3962H416.75ZM413.91 85.008C414.417 85.008 414.884 84.8971 415.312 84.6753C415.74 84.4456 416.057 84.1406 416.262 83.7604V81.5504H414.979C413.26 81.5504 412.345 82.1445 412.235 83.3326L412.223 83.5346C412.223 83.9624 412.373 84.3149 412.674 84.5921C412.975 84.8694 413.387 85.008 413.91 85.008ZM421.847 80.8731C421.847 78.9007 422.314 77.3125 423.249 76.1085C424.192 74.9044 425.459 74.3024 427.051 74.3024C428.461 74.3024 429.558 74.7856 430.342 75.752L430.485 74.5401H433.598V86.9685C433.598 88.0933 433.341 89.0716 432.826 89.9033C432.319 90.735 431.602 91.3687 430.675 91.8044C429.748 92.2401 428.663 92.4579 427.42 92.4579C426.477 92.4579 425.558 92.2678 424.663 91.8876C423.768 91.5153 423.091 91.0321 422.631 90.438L424.152 88.3468C425.007 89.3053 426.045 89.7845 427.265 89.7845C428.176 89.7845 428.885 89.5389 429.392 89.0478C429.899 88.5646 430.152 87.8755 430.152 86.9804V86.2912C429.36 87.1863 428.319 87.6339 427.027 87.6339C425.483 87.6339 424.231 87.0319 423.273 85.8278C422.322 84.6159 421.847 83.0118 421.847 81.0157V80.8731ZM425.281 81.1226C425.281 82.287 425.514 83.2019 425.982 83.8673C426.449 84.5248 427.091 84.8535 427.907 84.8535C428.952 84.8535 429.701 84.4614 430.152 83.6772V78.271C429.693 77.4868 428.952 77.0947 427.93 77.0947C427.107 77.0947 426.457 77.4313 425.982 78.1046C425.514 78.7779 425.281 79.7839 425.281 81.1226ZM442.165 87.6339C440.28 87.6339 438.743 87.0556 437.555 85.8991C436.374 84.7426 435.784 83.2019 435.784 81.2771V80.9444C435.784 79.6532 436.034 78.5007 436.533 77.4868C437.032 76.4649 437.737 75.6807 438.648 75.1342C439.567 74.5797 440.612 74.3024 441.785 74.3024C443.543 74.3024 444.925 74.8569 445.931 75.9659C446.945 77.0749 447.452 78.6472 447.452 80.683V82.085H439.266C439.377 82.9247 439.709 83.598 440.264 84.105C440.826 84.6119 441.535 84.8654 442.391 84.8654C443.714 84.8654 444.747 84.3862 445.492 83.4277L447.179 85.3169C446.664 86.0457 445.967 86.616 445.088 87.0279C444.209 87.4319 443.234 87.6339 442.165 87.6339ZM441.773 77.0828C441.092 77.0828 440.537 77.3125 440.109 77.7719C439.69 78.2314 439.42 78.8888 439.301 79.7443H444.078V79.471C444.062 78.7106 443.856 78.1244 443.46 77.7125C443.064 77.2927 442.502 77.0828 441.773 77.0828Z" fill="white"/>
<defs>
<filter id="filter0_d_1_6" x="0.0756836" y="0.857315" width="606.323" height="159.523" filterUnits="userSpaceOnUse" color-interpolation-filters="sRGB">
<feFlood flood-opacity="0" result="BackgroundImageFix"/>
<feColorMatrix in="SourceAlpha" type="matrix" values="0 0 0 0 0 0 0 0 0 0 0 0 0 0 0 0 0 0 127 0" result="hardAlpha"/>
<feOffset dy="4.05568"/>
<feColorMatrix type="matrix" values="0 0 0 0 0 0 0 0 0 0 0 0 0 0 0 0 0 0 1 0"/>
<feBlend mode="normal" in2="BackgroundImageFix" result="effect1_dropShadow_1_6"/>
<feBlend mode="normal" in="SourceGraphic" in2="effect1_dropShadow_1_6" result="shape"/>
</filter>
</defs>
</svg>
