<svg width="607" height="90" viewBox="0 0 607 90" fill="none" xmlns="http://www.w3.org/2000/svg">
<g filter="url(#filter0_d_1_4)">
<rect x="0.0756836" y="0.0756798" width="606.324" height="85.1692" rx="3.37973" fill="white"/>
<path d="M43.5131 33.4518H35.4361V55.3541H28.9486V33.4518H21.0194V28.443H43.5131V33.4518ZM54.1408 55.3541C53.919 54.9474 53.7219 54.3498 53.5493 53.5612C52.4034 55.0029 50.8016 55.7237 48.7438 55.7237C46.8585 55.7237 45.2567 55.1569 43.9382 54.0233C42.6198 52.8774 41.9606 51.4418 41.9606 49.7168C41.9606 47.5481 42.7615 45.9093 44.3633 44.8003C45.9652 43.6914 48.294 43.1369 51.3499 43.1369H53.2721V42.0833C53.2721 40.2474 52.4773 39.3294 50.8878 39.3294C49.4092 39.3294 48.6699 40.0564 48.6699 41.5104H42.4411C42.4411 39.5758 43.2605 38.0048 44.8994 36.7972C46.5505 35.5897 48.6514 34.9859 51.202 34.9859C53.7527 34.9859 55.7673 35.6082 57.2459 36.8527C58.7246 38.0972 59.4824 39.8038 59.5193 41.9724V50.8258C59.544 52.6617 59.8274 54.0664 60.3695 55.0399V55.3541H54.1408ZM50.2409 51.2878C51.0172 51.2878 51.6579 51.1215 52.1631 50.7888C52.6807 50.4561 53.0503 50.0803 53.2721 49.6613V46.4638H51.4608C49.2921 46.4638 48.2078 47.4372 48.2078 49.3841C48.2078 49.9509 48.3988 50.413 48.7808 50.7703C49.1627 51.1153 49.6495 51.2878 50.2409 51.2878ZM73.4554 49.7353C73.4554 49.2054 73.1782 48.7803 72.6237 48.4599C72.0692 48.1396 71.0157 47.8069 69.4631 47.4619C67.9106 47.1168 66.6291 46.6671 65.6187 46.1126C64.6083 45.5458 63.8382 44.8619 63.3083 44.061C62.7785 43.2601 62.5136 42.3421 62.5136 41.3071C62.5136 39.4711 63.2714 37.9617 64.787 36.7787C66.3025 35.5835 68.2864 34.9859 70.7384 34.9859C73.3753 34.9859 75.4947 35.5835 77.0966 36.7787C78.6984 37.974 79.4993 39.545 79.4993 41.4919H73.2521C73.2521 39.89 72.4081 39.0891 70.72 39.0891C70.0669 39.0891 69.5186 39.2739 69.075 39.6436C68.6314 40.0009 68.4096 40.4507 68.4096 40.9928C68.4096 41.5473 68.6807 41.9971 69.2228 42.3421C69.765 42.6871 70.6275 42.9705 71.8105 43.1923C73.0057 43.4141 74.053 43.679 74.9525 43.9871C77.9591 45.0221 79.4624 46.8766 79.4624 49.5504C79.4624 51.3741 78.6491 52.8589 77.0226 54.0048C75.4085 55.1507 73.3137 55.7237 70.7384 55.7237C69.0257 55.7237 67.4978 55.4157 66.1547 54.7996C64.8116 54.1835 63.7642 53.3456 63.0126 52.2859C62.261 51.2262 61.8851 50.1111 61.8851 48.9405H67.7072C67.7319 49.8646 68.0399 50.5423 68.6314 50.9736C69.2228 51.3926 69.9806 51.602 70.9048 51.602C71.755 51.602 72.3896 51.4295 72.8085 51.0845C73.2398 50.7395 73.4554 50.2897 73.4554 49.7353ZM90.4227 47.9055L88.6669 49.6613V55.3541H82.4381V26.9458H88.6669V42.0279L89.2953 41.1962L93.9899 35.3556H101.457L94.452 43.5805L101.919 55.3541H94.7847L90.4227 47.9055ZM129.754 44.634H119.293V55.3541H112.806V28.443H130.808V33.4518H119.293V39.6436H129.754V44.634ZM139.791 55.3541H133.543V26.9643H139.791V55.3541ZM142.859 45.17C142.859 43.1738 143.247 41.3995 144.023 39.8469C144.799 38.282 145.915 37.0806 147.369 36.2427C148.823 35.4049 150.529 34.9859 152.488 34.9859C155.483 34.9859 157.842 35.9162 159.567 37.7768C161.292 39.6251 162.155 42.145 162.155 45.3363V45.5581C162.155 48.6756 161.286 51.1523 159.549 52.9883C157.824 54.8119 155.483 55.7237 152.525 55.7237C149.679 55.7237 147.393 54.8735 145.668 53.1731C143.943 51.4603 143.013 49.1438 142.877 46.2235L142.859 45.17ZM149.087 45.5581C149.087 47.4064 149.377 48.7618 149.956 49.6244C150.535 50.4869 151.392 50.9182 152.525 50.9182C154.743 50.9182 155.877 49.2116 155.926 45.7984V45.17C155.926 41.5843 154.78 39.7915 152.488 39.7915C150.406 39.7915 149.278 41.3379 149.106 44.4307L149.087 45.5581ZM182.172 47.1477L184.186 35.3556H190.156L185.443 55.3541H180.176L176.867 43.488L173.54 55.3541H168.273L163.56 35.3556H169.53L171.507 47.4249L174.686 35.3556H179.03L182.172 47.1477ZM196.274 49.3102C197.26 49.3102 198.079 49.6059 198.733 50.1973C199.386 50.7765 199.712 51.5219 199.712 52.4338C199.712 53.3456 199.386 54.0972 198.733 54.6887C198.079 55.2678 197.26 55.5574 196.274 55.5574C195.276 55.5574 194.451 55.2616 193.798 54.6702C193.157 54.0787 192.836 53.3333 192.836 52.4338C192.836 51.5343 193.157 50.7888 193.798 50.1973C194.451 49.6059 195.276 49.3102 196.274 49.3102ZM196.274 34.5608C197.26 34.5608 198.079 34.8565 198.733 35.448C199.386 36.0271 199.712 36.7726 199.712 37.6844C199.712 38.5962 199.386 39.3479 198.733 39.9393C198.079 40.5185 197.26 40.808 196.274 40.808C195.276 40.808 194.451 40.5123 193.798 39.9208C193.157 39.3294 192.836 38.5839 192.836 37.6844C192.836 36.7849 193.157 36.0394 193.798 35.448C194.451 34.8565 195.276 34.5608 196.274 34.5608ZM222.89 55.7237C219.821 55.7237 217.339 54.8119 215.441 52.9883C213.543 51.1523 212.595 48.768 212.595 45.8354V45.3178C212.595 43.2724 212.97 41.4672 213.722 39.9024C214.486 38.3375 215.595 37.1299 217.049 36.2797C218.503 35.4172 220.228 34.9859 222.224 34.9859C225.034 34.9859 227.252 35.8608 228.878 37.6105C230.505 39.3479 231.318 41.7753 231.318 44.8927V47.314H218.934C219.156 48.4353 219.643 49.3163 220.394 49.9571C221.146 50.5978 222.12 50.9182 223.315 50.9182C225.286 50.9182 226.827 50.2281 227.935 48.8481L230.782 52.212C230.006 53.284 228.903 54.1404 227.473 54.7811C226.056 55.4095 224.528 55.7237 222.89 55.7237ZM222.187 39.7915C220.364 39.7915 219.279 40.999 218.934 43.4141H225.218V42.9336C225.243 41.9355 224.991 41.1654 224.461 40.6232C223.931 40.0687 223.173 39.7915 222.187 39.7915ZM255.9 46.242C255.814 48.1149 255.309 49.7722 254.385 51.2139C253.46 52.6432 252.16 53.7522 250.485 54.5408C248.821 55.3294 246.917 55.7237 244.773 55.7237C241.237 55.7237 238.452 54.5716 236.419 52.2674C234.386 49.9632 233.369 46.7102 233.369 42.5084V41.1777C233.369 38.5408 233.825 36.2366 234.737 34.2651C235.661 32.2812 236.986 30.7533 238.711 29.6813C240.436 28.597 242.432 28.0548 244.699 28.0548C247.965 28.0548 250.589 28.9174 252.573 30.6424C254.557 32.3552 255.684 34.721 255.956 37.7399H249.487C249.437 36.101 249.024 34.9243 248.248 34.2096C247.472 33.495 246.289 33.1376 244.699 33.1376C243.085 33.1376 241.902 33.7414 241.151 34.9489C240.399 36.1565 240.005 38.0849 239.968 40.7341V42.6378C239.968 45.5088 240.325 47.5604 241.04 48.7926C241.767 50.0248 243.011 50.6409 244.773 50.6409C246.264 50.6409 247.404 50.2897 248.193 49.5874C248.981 48.885 249.4 47.7699 249.45 46.242H255.9ZM257.896 45.17C257.896 43.1738 258.284 41.3995 259.061 39.8469C259.837 38.282 260.952 37.0806 262.406 36.2427C263.86 35.4049 265.567 34.9859 267.526 34.9859C270.52 34.9859 272.88 35.9162 274.605 37.7768C276.33 39.6251 277.192 42.145 277.192 45.3363V45.5581C277.192 48.6756 276.324 51.1523 274.586 52.9883C272.861 54.8119 270.52 55.7237 267.563 55.7237C264.716 55.7237 262.431 54.8735 260.706 53.1731C258.981 51.4603 258.05 49.1438 257.915 46.2235L257.896 45.17ZM264.125 45.5581C264.125 47.4064 264.415 48.7618 264.994 49.6244C265.573 50.4869 266.429 50.9182 267.563 50.9182C269.781 50.9182 270.914 49.2116 270.964 45.7984V45.17C270.964 41.5843 269.818 39.7915 267.526 39.7915C265.443 39.7915 264.316 41.3379 264.143 44.4307L264.125 45.5581ZM285.824 35.3556L286.027 37.7029C287.444 35.8916 289.348 34.9859 291.738 34.9859C294.264 34.9859 295.971 35.9901 296.858 37.9986C298.214 35.9901 300.173 34.9859 302.736 34.9859C306.79 34.9859 308.872 37.438 308.983 42.3421V55.3541H302.736V42.7302C302.736 41.7075 302.563 40.962 302.218 40.4938C301.873 40.0256 301.245 39.7915 300.333 39.7915C299.101 39.7915 298.183 40.3398 297.579 41.4364L297.598 41.6952V55.3541H291.35V42.7672C291.35 41.7198 291.184 40.962 290.851 40.4938C290.519 40.0256 289.884 39.7915 288.948 39.7915C287.752 39.7915 286.84 40.3398 286.212 41.4364V55.3541H279.983V35.3556H285.824ZM318.428 35.3556L318.631 37.7029C320.048 35.8916 321.952 34.9859 324.342 34.9859C326.868 34.9859 328.575 35.9901 329.462 37.9986C330.817 35.9901 332.777 34.9859 335.34 34.9859C339.394 34.9859 341.476 37.438 341.587 42.3421V55.3541H335.34V42.7302C335.34 41.7075 335.167 40.962 334.822 40.4938C334.477 40.0256 333.849 39.7915 332.937 39.7915C331.705 39.7915 330.787 40.3398 330.183 41.4364L330.201 41.6952V55.3541H323.954V42.7672C323.954 41.7198 323.788 40.962 323.455 40.4938C323.122 40.0256 322.488 39.7915 321.551 39.7915C320.356 39.7915 319.444 40.3398 318.816 41.4364V55.3541H312.587V35.3556H318.428ZM354.821 55.7237C351.752 55.7237 349.27 54.8119 347.372 52.9883C345.474 51.1523 344.526 48.768 344.526 45.8354V45.3178C344.526 43.2724 344.901 41.4672 345.653 39.9024C346.417 38.3375 347.526 37.1299 348.98 36.2797C350.434 35.4172 352.159 34.9859 354.155 34.9859C356.965 34.9859 359.183 35.8608 360.809 37.6105C362.436 39.3479 363.249 41.7753 363.249 44.8927V47.314H350.865C351.087 48.4353 351.574 49.3163 352.325 49.9571C353.077 50.5978 354.05 50.9182 355.246 50.9182C357.217 50.9182 358.757 50.2281 359.866 48.8481L362.713 52.212C361.937 53.284 360.834 54.1404 359.404 54.7811C357.987 55.4095 356.459 55.7237 354.821 55.7237ZM354.118 39.7915C352.295 39.7915 351.21 40.999 350.865 43.4141H357.149V42.9336C357.174 41.9355 356.921 41.1654 356.392 40.6232C355.862 40.0687 355.104 39.7915 354.118 39.7915ZM377.869 40.9928L375.817 40.845C373.858 40.845 372.601 41.4611 372.047 42.6933V55.3541H365.818V35.3556H371.658L371.862 37.9247C372.909 35.9655 374.369 34.9859 376.242 34.9859C376.908 34.9859 377.487 35.0598 377.98 35.2077L377.869 40.9928ZM388.201 50.9182C389.076 50.9182 389.753 50.684 390.234 50.2158C390.714 49.7353 390.948 49.0699 390.936 48.2197H396.777C396.777 50.413 395.988 52.212 394.411 53.6167C392.846 55.0214 390.825 55.7237 388.349 55.7237C385.441 55.7237 383.149 54.8119 381.473 52.9883C379.797 51.1646 378.959 48.6386 378.959 45.4103V45.1515C378.959 43.1307 379.329 41.3502 380.068 39.8099C380.82 38.2574 381.898 37.0683 383.303 36.2427C384.707 35.4049 386.371 34.9859 388.293 34.9859C390.893 34.9859 392.957 35.7067 394.485 37.1484C396.013 38.5901 396.777 40.5431 396.777 43.0075H390.936C390.936 41.9724 390.684 41.1777 390.178 40.6232C389.673 40.0687 388.995 39.7915 388.145 39.7915C386.531 39.7915 385.588 40.8203 385.317 42.8781C385.231 43.5312 385.188 44.4307 385.188 45.5766C385.188 47.5851 385.428 48.9775 385.909 49.7537C386.389 50.53 387.153 50.9182 388.201 50.9182ZM409.086 55.7237C406.018 55.7237 403.535 54.8119 401.638 52.9883C399.74 51.1523 398.791 48.768 398.791 45.8354V45.3178C398.791 43.2724 399.167 41.4672 399.919 39.9024C400.683 38.3375 401.792 37.1299 403.246 36.2797C404.7 35.4172 406.425 34.9859 408.421 34.9859C411.23 34.9859 413.448 35.8608 415.075 37.6105C416.701 39.3479 417.515 41.7753 417.515 44.8927V47.314H405.131C405.353 48.4353 405.84 49.3163 406.591 49.9571C407.343 50.5978 408.316 50.9182 409.511 50.9182C411.483 50.9182 413.023 50.2281 414.132 48.8481L416.979 52.212C416.202 53.284 415.099 54.1404 413.67 54.7811C412.253 55.4095 410.725 55.7237 409.086 55.7237ZM408.384 39.7915C406.56 39.7915 405.476 40.999 405.131 43.4141H411.415V42.9336C411.44 41.9355 411.187 41.1654 410.657 40.6232C410.128 40.0687 409.37 39.7915 408.384 39.7915ZM448.03 45.5027C448.03 48.6078 447.327 51.0907 445.923 52.9513C444.53 54.7996 442.645 55.7237 440.267 55.7237C438.431 55.7237 436.922 55.0522 435.739 53.7091V63.0429H429.51V35.3556H435.332L435.517 37.2039C436.712 35.7252 438.283 34.9859 440.23 34.9859C442.694 34.9859 444.611 35.8977 445.978 37.7214C447.346 39.5327 448.03 42.0279 448.03 45.207V45.5027ZM441.801 45.1145C441.801 41.5658 440.766 39.7915 438.696 39.7915C437.217 39.7915 436.232 40.3213 435.739 41.381V49.2547C436.281 50.3637 437.279 50.9182 438.733 50.9182C440.717 50.9182 441.739 49.2054 441.801 45.7799V45.1145ZM462.705 53.1916C461.387 54.8797 459.606 55.7237 457.364 55.7237C455.17 55.7237 453.507 55.0891 452.373 53.82C451.252 52.5385 450.691 50.7025 450.691 48.3121V35.3556H456.92V48.349C456.92 50.0618 457.752 50.9182 459.415 50.9182C460.845 50.9182 461.861 50.4068 462.465 49.3841V35.3556H468.731V55.3541H462.89L462.705 53.1916ZM484.256 40.9928L482.205 40.845C480.246 40.845 478.989 41.4611 478.434 42.6933V55.3541H472.205V35.3556H478.046L478.249 37.9247C479.297 35.9655 480.757 34.9859 482.63 34.9859C483.295 34.9859 483.874 35.0598 484.367 35.2077L484.256 40.9928ZM494.588 50.9182C495.463 50.9182 496.141 50.684 496.621 50.2158C497.102 49.7353 497.336 49.0699 497.324 48.2197H503.164C503.164 50.413 502.376 52.212 500.798 53.6167C499.234 55.0214 497.213 55.7237 494.736 55.7237C491.828 55.7237 489.536 54.8119 487.86 52.9883C486.185 51.1646 485.347 48.6386 485.347 45.4103V45.1515C485.347 43.1307 485.716 41.3502 486.456 39.8099C487.207 38.2574 488.286 37.0683 489.69 36.2427C491.095 35.4049 492.758 34.9859 494.681 34.9859C497.281 34.9859 499.345 35.7067 500.872 37.1484C502.4 38.5901 503.164 40.5431 503.164 43.0075H497.324C497.324 41.9724 497.071 41.1777 496.566 40.6232C496.061 40.0687 495.383 39.7915 494.533 39.7915C492.919 39.7915 491.976 40.8203 491.705 42.8781C491.619 43.5312 491.576 44.4307 491.576 45.5766C491.576 47.5851 491.816 48.9775 492.296 49.7537C492.777 50.53 493.541 50.9182 494.588 50.9182ZM511.888 37.4996C513.219 35.8238 514.919 34.9859 516.99 34.9859C519.195 34.9859 520.859 35.639 521.98 36.9451C523.101 38.2512 523.674 40.1796 523.699 42.7302V55.3541H517.452V42.8781C517.452 41.8184 517.236 41.0421 516.805 40.5493C516.373 40.0441 515.64 39.7915 514.605 39.7915C513.324 39.7915 512.418 40.1981 511.888 41.0113V55.3541H505.659V26.9643H511.888V37.4996ZM538.43 55.3541C538.208 54.9474 538.011 54.3498 537.838 53.5612C536.692 55.0029 535.09 55.7237 533.033 55.7237C531.147 55.7237 529.546 55.1569 528.227 54.0233C526.909 52.8774 526.249 51.4418 526.249 49.7168C526.249 47.5481 527.05 45.9093 528.652 44.8003C530.254 43.6914 532.583 43.1369 535.639 43.1369H537.561V42.0833C537.561 40.2474 536.766 39.3294 535.177 39.3294C533.698 39.3294 532.959 40.0564 532.959 41.5104H526.73C526.73 39.5758 527.549 38.0048 529.188 36.7972C530.839 35.5897 532.94 34.9859 535.491 34.9859C538.042 34.9859 540.056 35.6082 541.535 36.8527C543.013 38.0972 543.771 39.8038 543.808 41.9724V50.8258C543.833 52.6617 544.116 54.0664 544.658 55.0399V55.3541H538.43ZM534.53 51.2878C535.306 51.2878 535.947 51.1215 536.452 50.7888C536.97 50.4561 537.339 50.0803 537.561 49.6613V46.4638H535.75C533.581 46.4638 532.497 47.4372 532.497 49.3841C532.497 49.9509 532.688 50.413 533.07 50.7703C533.452 51.1153 533.938 51.2878 534.53 51.2878ZM557.744 49.7353C557.744 49.2054 557.467 48.7803 556.913 48.4599C556.358 48.1396 555.305 47.8069 553.752 47.4619C552.199 47.1168 550.918 46.6671 549.908 46.1126C548.897 45.5458 548.127 44.8619 547.597 44.061C547.067 43.2601 546.802 42.3421 546.802 41.3071C546.802 39.4711 547.56 37.9617 549.076 36.7787C550.591 35.5835 552.575 34.9859 555.027 34.9859C557.664 34.9859 559.784 35.5835 561.385 36.7787C562.987 37.974 563.788 39.545 563.788 41.4919H557.541C557.541 39.89 556.697 39.0891 555.009 39.0891C554.356 39.0891 553.807 39.2739 553.364 39.6436C552.92 40.0009 552.698 40.4507 552.698 40.9928C552.698 41.5473 552.97 41.9971 553.512 42.3421C554.054 42.6871 554.916 42.9705 556.099 43.1923C557.295 43.4141 558.342 43.679 559.241 43.9871C562.248 45.0221 563.751 46.8766 563.751 49.5504C563.751 51.3741 562.938 52.8589 561.311 54.0048C559.697 55.1507 557.603 55.7237 555.027 55.7237C553.315 55.7237 551.787 55.4157 550.444 54.7996C549.1 54.1835 548.053 53.3456 547.301 52.2859C546.55 51.2262 546.174 50.1111 546.174 48.9405H551.996C552.021 49.8646 552.329 50.5423 552.92 50.9736C553.512 51.3926 554.27 51.602 555.194 51.602C556.044 51.602 556.678 51.4295 557.097 51.0845C557.529 50.7395 557.744 50.2897 557.744 49.7353ZM576.357 55.7237C573.288 55.7237 570.806 54.8119 568.908 52.9883C567.01 51.1523 566.062 48.768 566.062 45.8354V45.3178C566.062 43.2724 566.437 41.4672 567.189 39.9024C567.953 38.3375 569.062 37.1299 570.516 36.2797C571.97 35.4172 573.695 34.9859 575.691 34.9859C578.501 34.9859 580.719 35.8608 582.345 37.6105C583.972 39.3479 584.785 41.7753 584.785 44.8927V47.314H572.401C572.623 48.4353 573.11 49.3163 573.861 49.9571C574.613 50.5978 575.586 50.9182 576.782 50.9182C578.753 50.9182 580.293 50.2281 581.402 48.8481L584.249 52.212C583.472 53.284 582.37 54.1404 580.94 54.7811C579.523 55.4095 577.995 55.7237 576.357 55.7237ZM575.654 39.7915C573.831 39.7915 572.746 40.999 572.401 43.4141H578.685V42.9336C578.71 41.9355 578.457 41.1654 577.928 40.6232C577.398 40.0687 576.64 39.7915 575.654 39.7915Z" fill="black"/>
</g>
<defs>
<filter id="filter0_d_1_4" x="0.0756836" y="0.0756798" width="606.323" height="89.2249" filterUnits="userSpaceOnUse" color-interpolation-filters="sRGB">
<feFlood flood-opacity="0" result="BackgroundImageFix"/>
<feColorMatrix in="SourceAlpha" type="matrix" values="0 0 0 0 0 0 0 0 0 0 0 0 0 0 0 0 0 0 127 0" result="hardAlpha"/>
<feOffset dy="4.05568"/>
<feColorMatrix type="matrix" values="0 0 0 0 0 0 0 0 0 0 0 0 0 0 0 0 0 0 1 0"/>
<feBlend mode="normal" in2="BackgroundImageFix" result="effect1_dropShadow_1_4"/>
<feBlend mode="normal" in="SourceGraphic" in2="effect1_dropShadow_1_4" result="shape"/>
</filter>
</defs>
</svg>
