<svg width="91" height="94" viewBox="0 0 91 94" fill="none" xmlns="http://www.w3.org/2000/svg">
<g filter="url(#filter0_d_1_18)">
<path d="M48.4081 77.0867C47.6949 76.7938 47.0792 76.2734 46.6555 75.5668L36.7157 58.9024L17.9321 63.7685C16.3327 64.1813 14.6909 63.5069 13.8565 62.0772C13.0183 60.6568 13.1779 58.8116 14.2465 57.5059L27.0246 41.6372L17.0977 25.3081C16.2711 23.8795 16.441 22.0343 17.5175 20.7296C18.596 19.4301 20.3397 18.9623 21.8449 19.5676L39.484 26.7806L52.3339 11.4655C53.4202 10.167 55.1654 9.71065 56.6678 10.3278C58.1702 10.9449 59.09 12.498 58.9525 14.184L57.2318 34.0705L74.9382 41.3758C76.4396 42.0055 77.3521 43.5664 77.2012 45.2448C77.0516 46.9302 75.8754 48.3621 74.2815 48.7965L55.7428 53.4332L53.6773 73.7021C53.5231 75.3835 52.3343 76.8059 50.7433 77.2285C49.9381 77.4456 49.1266 77.3819 48.4081 77.0867V77.0867Z" fill="#FFC700"/>
<path d="M43.869 77.2288L43.8727 77.2349C44.6538 78.538 45.8116 79.5278 47.1754 80.0879C48.5422 80.6494 50.0805 80.7659 51.5804 80.3632C54.5133 79.5823 56.6245 77.0095 56.9066 74.0169L58.7397 56.0282L75.0688 51.9441L75.1018 51.9358L75.1347 51.9268C78.0809 51.1239 80.1658 48.5253 80.4327 45.5353C80.704 42.5181 79.061 39.5865 76.193 38.3838L76.1844 38.3801L76.1757 38.3765L60.6694 31.979L62.1849 14.4637L62.1856 14.4558L62.1863 14.4478C62.432 11.435 60.7833 8.51062 57.9006 7.32653C55.0207 6.1436 51.7912 7.05907 49.8467 9.38194C49.8463 9.38248 49.8458 9.38301 49.8454 9.38355L38.5204 22.8812L23.0729 16.5645L23.0642 16.5609L23.0554 16.5574C20.1711 15.3975 16.9501 16.3327 15.0208 18.6575L15.0149 18.6647C13.1058 20.9784 12.7608 24.2911 14.2893 26.933L14.307 26.9635L14.3252 26.9935L23.069 41.3764L11.7264 55.4624C9.83625 57.7814 9.51147 61.0916 11.0582 63.7194C12.6328 66.4106 15.7542 67.6814 18.7428 66.9102L18.7458 66.9094L35.175 62.6532L43.869 77.2288ZM17.5173 20.7294L17.5175 20.7296L17.5173 20.7294Z" stroke="white" stroke-width="6.48908"/>
</g>
<defs>
<filter id="filter0_d_1_18" x="0.342644" y="0.319004" width="89.8526" height="93.2611" filterUnits="userSpaceOnUse" color-interpolation-filters="sRGB">
<feFlood flood-opacity="0" result="BackgroundImageFix"/>
<feColorMatrix in="SourceAlpha" type="matrix" values="0 0 0 0 0 0 0 0 0 0 0 0 0 0 0 0 0 0 127 0" result="hardAlpha"/>
<feOffset dy="3.24454"/>
<feGaussianBlur stdDeviation="3.24454"/>
<feColorMatrix type="matrix" values="0 0 0 0 0 0 0 0 0 0 0 0 0 0 0 0 0 0 0.25 0"/>
<feBlend mode="normal" in2="BackgroundImageFix" result="effect1_dropShadow_1_18"/>
<feBlend mode="normal" in="SourceGraphic" in2="effect1_dropShadow_1_18" result="shape"/>
</filter>
</defs>
</svg>
